<?xml version="1.0" encoding="UTF-8" standalone="no"?>
<!DOCTYPE svg PUBLIC "-//W3C//DTD SVG 1.1//EN" "http://www.w3.org/Graphics/SVG/1.1/DTD/svg11.dtd">
<svg width="100%" height="100%" viewBox="0 0 754 157" version="1.1" xmlns="http://www.w3.org/2000/svg" xmlns:xlink="http://www.w3.org/1999/xlink" xml:space="preserve" xmlns:serif="http://www.serif.com/" style="fill-rule:evenodd;clip-rule:evenodd;stroke-linejoin:round;stroke-miterlimit:2;">
    <g transform="matrix(1.245,0,0,1.245,-79.6876,-34.7968)">
        <path d="M549.743,146L579.057,146L579.057,138.457L559,138.457L559,106L549.743,106L549.743,146Z" style="fill-rule:nonzero;"/>
        <path d="M588.086,110.971C591.4,110.971 593.629,108.8 593.629,105.829C593.629,103.086 591.4,101.029 588.086,101.029C584.771,101.029 582.543,103.2 582.543,106C582.543,108.8 584.771,110.971 588.086,110.971ZM583.629,146L592.543,146L592.543,115.257L583.629,115.257L583.629,146Z" style="fill-rule:nonzero;"/>
        <path d="M609.343,119.314L609.343,115.257L600.829,115.257L600.829,146L609.743,146L609.743,131.486C609.743,125.6 613,122.914 617.914,122.914C618.6,122.914 619.171,122.971 619.914,123.029L619.914,114.8C615.171,114.8 611.514,116.343 609.343,119.314Z" style="fill-rule:nonzero;"/>
        <path d="M629.686,110.971C633,110.971 635.229,108.8 635.229,105.829C635.229,103.086 633,101.029 629.686,101.029C626.371,101.029 624.143,103.2 624.143,106C624.143,108.8 626.371,110.971 629.686,110.971ZM625.229,146L634.143,146L634.143,115.257L625.229,115.257L625.229,146Z" style="fill-rule:nonzero;"/>
        <path d="M654.829,114.8C649.914,114.8 644.943,116.114 641.571,118.514L644.771,124.743C647,122.971 650.371,121.886 653.629,121.886C658.429,121.886 660.714,124.114 660.714,127.943L653.629,127.943C644.257,127.943 640.429,131.714 640.429,137.143C640.429,142.457 644.714,146.457 651.914,146.457C656.429,146.457 659.629,144.971 661.286,142.171L661.286,146L669.629,146L669.629,128.457C669.629,119.143 664.2,114.8 654.829,114.8ZM654.143,140.457C651,140.457 649.114,138.971 649.114,136.743C649.114,134.686 650.429,133.143 654.6,133.143L660.714,133.143L660.714,136.286C659.686,139.086 657.114,140.457 654.143,140.457Z" style="fill-rule:nonzero;"/>
    </g>
    <g transform="matrix(0.868656,0,0,0.868656,59.3151,17.1495)">
        <path d="M567.286,114.8C563.457,114.8 560.314,116 558.029,118.514L558.029,103.6L549.114,103.6L549.114,146L557.629,146L557.629,142.457C559.857,145.143 563.171,146.457 567.286,146.457C575.914,146.457 582.6,140.286 582.6,130.629C582.6,120.971 575.914,114.8 567.286,114.8ZM565.743,139.143C561.286,139.143 557.914,135.943 557.914,130.629C557.914,125.314 561.286,122.114 565.743,122.114C570.2,122.114 573.571,125.314 573.571,130.629C573.571,135.943 570.2,139.143 565.743,139.143Z" style="fill-rule:nonzero;"/>
        <path d="M609.629,115.257L600.943,136.114L592.314,115.257L583.114,115.257L596.429,146.229L596.314,146.514C595.114,149.257 593.743,150.343 591.286,150.343C589.514,150.343 587.629,149.6 586.257,148.4L583,154.743C585,156.514 588.429,157.543 591.571,157.543C597.114,157.543 601.343,155.314 604.314,147.886L618.2,115.257L609.629,115.257Z" style="fill-rule:nonzero;"/>
    </g>
    <g transform="matrix(0.514397,0,0,0.514397,-6.0777,-242.31)">
        <g transform="matrix(1,0,0,1,-3.02583,110.27)">
            <path d="M328.369,521.781C318.429,521.781 310.371,513.723 310.371,503.784C310.371,470.005 310.371,400.482 310.371,400.482C310.371,397.862 308.793,395.5 306.372,394.497C303.951,393.494 301.165,394.048 299.312,395.901L45.569,649.644C38.54,656.673 27.143,656.673 20.113,649.644C13.084,642.615 13.084,631.218 20.113,624.188L273.856,370.445C286.005,358.297 304.275,354.662 320.148,361.237C336.022,367.812 346.371,383.301 346.371,400.482C346.371,400.482 346.371,470.005 346.371,503.784C346.371,513.723 338.313,521.781 328.373,521.781C328.372,521.781 328.37,521.781 328.369,521.781Z"/>
        </g>
        <g transform="matrix(1,0,0,1,-3.02583,110.27)">
            <path d="M328.373,558.212C338.313,558.212 346.371,566.27 346.371,576.21C346.371,595.541 346.371,623.518 346.371,623.518C346.371,626.138 347.95,628.5 350.37,629.503C352.791,630.506 355.578,629.952 357.431,628.099L452.474,533.055C459.504,526.026 470.9,526.026 477.93,533.055C484.959,540.085 484.959,551.482 477.93,558.511L382.887,653.555C370.738,665.703 352.467,669.338 336.594,662.763C320.721,656.188 310.371,640.699 310.371,623.518C310.371,623.518 310.371,595.541 310.371,576.21C310.371,566.27 318.429,558.212 328.369,558.212C328.37,558.212 328.372,558.212 328.373,558.212Z"/>
        </g>
        <g transform="matrix(2.71983,0,0,2.71983,-862.243,-1112.24)">
            <path d="M491.629,692.408C489.044,694.992 484.854,694.992 482.27,692.408C479.685,689.823 479.685,685.633 482.27,683.048L524.529,640.789C528.996,636.322 535.714,634.986 541.55,637.403C547.386,639.821 551.191,645.515 551.191,651.832L551.191,687.728C551.191,691.383 548.228,694.346 544.573,694.346C540.918,694.346 537.955,691.383 537.955,687.728L537.955,651.832C537.955,650.869 537.374,650 536.484,649.632C535.594,649.263 534.57,649.467 533.889,650.148L491.629,692.408Z"/>
        </g>
        <g transform="matrix(2.71983,0,0,3.74349,-881.181,-1763.14)">
            <path d="M570.609,627.803C570.609,625.147 573.572,622.994 577.227,622.994C580.882,622.994 583.845,625.147 583.845,627.803L583.845,673.543C583.845,676.199 580.882,678.352 577.227,678.352C573.572,678.352 570.609,676.199 570.609,673.543L570.609,627.803Z"/>
        </g>
        <g transform="matrix(2.71983,0,0,2.71983,-775.118,-1070.2)">
            <path d="M570.609,622.871C570.609,619.216 573.572,616.252 577.227,616.252C580.882,616.252 583.845,619.216 583.845,622.871L583.845,671.866C583.845,675.521 580.882,678.484 577.227,678.484C573.572,678.484 570.609,675.521 570.609,671.866L570.609,622.871Z" style="fill:rgb(76,76,76);"/>
        </g>
        <g transform="matrix(2.71983,0,0,2.71983,-881.181,-996.868)">
            <path d="M577.227,609.219C573.572,609.219 570.609,606.256 570.609,602.601C570.609,598.946 573.572,595.983 577.227,595.983L593.439,595.983C597.094,595.983 600.057,598.946 600.057,602.601C600.057,606.256 597.094,609.219 593.439,609.219L577.227,609.219Z"/>
        </g>
        <g transform="matrix(2.5569,0,0,2.5569,-774.386,-973.139)">
            <path d="M663.836,619.696C681.354,619.696 695.577,633.919 695.577,651.437C695.577,668.956 681.354,683.178 663.836,683.178C646.317,683.178 632.095,668.956 632.095,651.437C632.095,633.919 646.317,619.696 663.836,619.696ZM663.836,632.211C653.225,632.211 644.61,640.826 644.61,651.437C644.61,662.048 653.225,670.663 663.836,670.663C674.447,670.663 683.062,662.048 683.062,651.437C683.062,640.826 674.447,632.211 663.836,632.211Z" style="fill:rgb(76,76,76);"/>
        </g>
    </g>
</svg>
