<svg width="100%" height="100%" viewBox="0 0 24 24" version="1.1" xmlns="http://www.w3.org/2000/svg" fill="currentColor" stroke="currentColor">
    <g transform="matrix(0.03726,0,0,0.03726,-7.0771,-7.0771)">
        <path d="M773.828,389.068l0,49.273l58.172,51.146l0,121.94l-58.172,0l0,220.573l-56.689,0l0,-41.017c0,-100.703 -87.417,-182.371 -195.264,-182.447l-0.168,0c-0.262,0 -0.509,0.027 -0.744,0.027c-65.937,0.4 -119.268,50.401 -119.268,112.081l-0.012,111.302l-77.65,0.054l0,-245.859l-38.029,0c-19.777,0 -35.832,-16.043 -35.832,-35.835l0,-223.046l-58.172,0l0,-77.253l58.172,0l0,-22.174l76.1,0l0,250.82l111.866,-264.271l36.939,0.064l66.016,138.792l67.134,-161.238l42.517,0l123.084,197.068Z" style="fill-rule:nonzero;stroke:black;stroke-width:1px;"/>
    </g>
</svg>
