<svg width="100%" height="100%" viewBox="0 0 32 32" fill="currentColor" stroke="currentColor">
    <g transform="matrix(0.0477042,0,0,0.0477042,-11.2391,-13.5289)">
        <path d="M250.788,674.839C247.64,656.695 246,638.038 246,619C246,439.628 391.628,294 571,294C750.372,294 896,439.628 896,619C896,716.926 852.596,804.795 783.993,864.401L784.337,536.301C784.407,470.062 744.541,410.313 683.35,384.948C622.16,359.583 551.714,373.605 504.9,420.467L250.788,674.839ZM657.735,932.278C630.12,939.917 601.033,944 571,944C459.358,944 360.788,887.586 302.267,801.733L583.769,520.231C596.161,507.839 614.797,504.132 630.988,510.839C647.179,517.545 657.735,533.344 657.735,550.869L657.735,932.278Z" style="fill:white;"/>
    </g>
    <style>
        .main{fill:black;} @media (prefers-color-scheme: dark) { .main{fill:white;} }
    </style>
</svg>
