<?xml version="1.0" encoding="UTF-8" standalone="no"?>
<!DOCTYPE svg PUBLIC "-//W3C//DTD SVG 1.1//EN" "http://www.w3.org/Graphics/SVG/1.1/DTD/svg11.dtd">
<svg width="100%" height="100%" viewBox="0 0 1024 187" version="1.1" xmlns="http://www.w3.org/2000/svg" xmlns:xlink="http://www.w3.org/1999/xlink" xml:space="preserve" xmlns:serif="http://www.serif.com/" style="fill-rule:evenodd;clip-rule:evenodd;stroke-linejoin:round;stroke-miterlimit:2;">
    <g transform="matrix(1.59147,0,0,1.59147,-332.623,-1390.32)">
        <g transform="matrix(0.117761,0,0,0.117761,630.823,910.638)">
            <g>
                <g transform="matrix(1,0,0,1,417.631,617)">
                    <path d="M131.323,-179.998C110.743,-179.998 94.082,-174.118 81.995,-161.704L81.995,-242.393L19.927,-242.393L19.927,0L79.055,0L79.055,-17.64C90.816,-3.593 108.129,2.94 131.323,2.94C179.345,2.94 218.219,-32.341 218.219,-88.856C218.219,-145.044 179.345,-179.998 131.323,-179.998ZM118.256,-46.388C97.349,-46.388 81.015,-61.742 81.015,-88.856C81.015,-115.643 97.349,-130.67 118.256,-130.67C139.164,-130.67 155.497,-115.643 155.497,-88.856C155.497,-61.742 139.164,-46.388 118.256,-46.388Z" style="fill:rgb(40,40,40);fill-rule:nonzero;"/>
                </g>
                <g transform="matrix(1,0,0,1,633.89,617)">
                    <path d="M147.33,-177.058L103.556,-68.928L60.108,-177.058L-3.593,-177.058L72.195,2.287C66.968,12.74 60.108,17.314 48.021,17.314C38.221,17.314 27.767,13.394 20.581,6.86L-0.98,50.308C10.78,60.108 31.687,66.315 50.308,66.315C85.262,66.315 111.396,52.921 130.017,7.187L206.459,-177.058L147.33,-177.058Z" style="fill:rgb(40,40,40);fill-rule:nonzero;"/>
                </g>
            </g>
        </g>
        <g transform="matrix(0.171346,0,0,0.171346,687.426,877.577)">
            <g>
                <g transform="matrix(1,0,0,1,271.771,617)">
                    <path d="M22.867,0L196.658,0L196.658,-51.288L87.549,-51.288L87.549,-228.673L22.867,-228.673L22.867,0Z" style="fill:rgb(40,40,40);fill-rule:nonzero;"/>
                </g>
                <g transform="matrix(1,0,0,1,460.262,617)">
                    <path d="M50.961,-196.658C73.829,-196.658 88.856,-211.032 88.856,-230.633C88.856,-249.253 73.829,-262.647 50.961,-262.647C28.094,-262.647 13.067,-248.273 13.067,-229.653C13.067,-211.032 28.094,-196.658 50.961,-196.658ZM19.927,0L81.995,0L81.995,-177.058L19.927,-177.058L19.927,0Z" style="fill:rgb(40,40,40);fill-rule:nonzero;"/>
                    <path d="M170.524,-155.824L170.524,-177.058L111.396,-177.058L111.396,0L173.464,0L173.464,-81.342C173.464,-112.376 190.778,-125.117 215.932,-125.117C220.506,-125.117 224.426,-124.79 229.979,-124.137L229.979,-179.998C203.845,-179.998 183.265,-171.831 170.524,-155.824Z" style="fill:rgb(40,40,40);fill-rule:nonzero;"/>
                    <path d="M276.367,-196.658C299.235,-196.658 314.262,-211.032 314.262,-230.633C314.262,-249.253 299.235,-262.647 276.367,-262.647C253.5,-262.647 238.473,-248.273 238.473,-229.653C238.473,-211.032 253.5,-196.658 276.367,-196.658ZM245.333,0L307.401,0L307.401,-177.058L245.333,-177.058L245.333,0Z" style="fill:rgb(40,40,40);fill-rule:nonzero;"/>
                    <path d="M412.264,-179.998C384.497,-179.998 354.443,-172.811 334.189,-159.417L355.096,-117.276C367.183,-126.75 386.13,-132.63 403.117,-132.63C427.618,-132.63 439.705,-122.503 440.685,-104.536L405.404,-104.536C350.523,-104.536 326.675,-84.282 326.675,-51.615C326.675,-20.907 350.196,2.94 392.664,2.94C418.471,2.94 436.111,-5.88 444.932,-22.867L444.932,0L502.753,0L502.753,-98.329C502.753,-154.517 469.759,-179.998 412.264,-179.998ZM409.977,-36.261C395.277,-36.261 386.783,-43.774 386.783,-54.228C386.783,-65.008 393.97,-72.195 413.897,-72.195L440.685,-72.195L440.685,-56.841C435.785,-42.794 423.698,-36.261 409.977,-36.261Z" style="fill:rgb(40,40,40);fill-rule:nonzero;"/>
                </g>
            </g>
        </g>
        <g transform="matrix(102.85,0,0,102.85,-25312.1,-99216.4)">
            <g transform="matrix(1,0,0,1,0.097229,0)">
                <path d="M248.869,974.27L249.15,974.27L248.728,973.317L248.463,973.317L248.042,974.27L248.317,974.27L248.392,974.085L248.795,974.085L248.869,974.27ZM248.471,973.886L248.593,973.581L248.716,973.886L248.471,973.886Z" style="fill:rgb(40,40,40);fill-rule:nonzero;"/>
            </g>
            <path d="M249.699,973.532L249.513,973.983L249.336,973.532L249.071,973.532L249.374,974.27L249.641,974.27L249.946,973.532L249.699,973.532Z" style="fill:rgb(40,40,40);fill-rule:nonzero;"/>
            <path d="M250.282,973.52C250.166,973.52 250.041,973.55 249.957,973.606L250.044,973.781C250.094,973.742 250.173,973.717 250.244,973.717C250.346,973.717 250.396,973.76 250.4,973.834L250.253,973.834C250.025,973.834 249.925,973.919 249.925,974.055C249.925,974.183 250.023,974.282 250.2,974.282C250.308,974.282 250.381,974.245 250.418,974.175L250.418,974.27L250.659,974.27L250.659,973.86C250.659,973.626 250.521,973.52 250.282,973.52ZM250.272,974.119C250.211,974.119 250.176,974.088 250.176,974.044C250.176,973.999 250.206,973.969 250.289,973.969L250.4,973.969L250.4,974.033C250.38,974.092 250.329,974.119 250.272,974.119Z" style="fill:rgb(40,40,40);fill-rule:nonzero;"/>
            <path d="M251.222,974.059C251.2,974.074 251.172,974.082 251.143,974.082C251.097,974.082 251.065,974.052 251.065,973.998L251.065,973.753L251.234,973.753L251.234,973.56L251.065,973.56L251.065,973.368L250.807,973.368L250.807,973.56L250.699,973.56L250.699,973.753L250.807,973.753L250.807,974C250.807,974.19 250.917,974.282 251.106,974.282C251.174,974.282 251.241,974.269 251.286,974.24L251.222,974.059Z" style="fill:rgb(40,40,40);fill-rule:nonzero;"/>
            <g transform="matrix(1,0,0,1,0.0194458,0)">
                <path d="M251.469,973.451C251.565,973.451 251.627,973.391 251.627,973.309C251.627,973.232 251.565,973.176 251.469,973.176C251.374,973.176 251.312,973.236 251.312,973.313C251.312,973.391 251.374,973.451 251.469,973.451ZM251.34,974.27L251.599,974.27L251.599,973.532L251.34,973.532L251.34,974.27Z" style="fill:rgb(82,82,82);fill-rule:nonzero;"/>
            </g>
            <g transform="matrix(1,0,0,1,0.0388916,0)">
                <path d="M252.091,974.282C252.335,974.282 252.508,974.123 252.508,973.9C252.508,973.678 252.335,973.52 252.091,973.52C251.85,973.52 251.675,973.678 251.675,973.9C251.675,974.123 251.85,974.282 252.091,974.282ZM252.091,974.077C252.004,974.077 251.936,974.013 251.936,973.9C251.936,973.788 252.004,973.726 252.091,973.726C252.18,973.726 252.246,973.788 252.246,973.9C252.246,974.013 252.18,974.077 252.091,974.077Z" style="fill:rgb(82,82,82);fill-rule:nonzero;"/>
            </g>
        </g>
    </g>
</svg>
